<?xml version="1.0" encoding="utf-8"?>
<!-- Generator: Adobe Illustrator 15.1.0, SVG Export Plug-In . SVG Version: 6.00 Build 0)  -->
<!DOCTYPE svg PUBLIC "-//W3C//DTD SVG 1.1//EN" "http://www.w3.org/Graphics/SVG/1.1/DTD/svg11.dtd">
<svg version="1.1" id="Layer_1" xmlns="http://www.w3.org/2000/svg" xmlns:xlink="http://www.w3.org/1999/xlink" x="0px" y="0px"
	 width="200px" height="200px" viewBox="0 0 200 200" enable-background="new 0 0 200 200" xml:space="preserve">
<path fill="#0052E0" d="M173.148,94.796c-2.041-20.074-20.414-46.274-38.563-56.255c-24.953-12.93-55.802-12.021-80.301,5.217
	c-41.966,33.12-31.191,76.898-24.385,89.657c16.334,35.728,40.492,40.491,51.889,41.683c11.399,1.19,2.382-3.402,2.382-3.402
	c-15.254-0.227-21.947-13.383-25.348-17.692c11.568,4.991,14.29,3.854,15.198,0.229c0.909-3.629-23.818-13.61-23.818-13.61
	s-7.032-1.813-11.116-4.537C16.403,93.889,43.171,60.94,56.441,50.052c23.817-18.545,53.081-16.674,74.516-5.784
	c21.438,10.888,31.814,33.855,35.218,51.038c3.401,17.182-1.532,34.538-16.674,52.401c-16.843,19.734-30.963,21.436-40.831,22.968
	c-10.037,1.36-7.314-7.657-7.314-7.657h2.041v-8.336l6.637-7.994l-1.021-1.873c0,0-1.021,0,13.439-15.82
	c20.927-22.116,15.313-41.001,11.738-44.404c-8.313-10.426-18.483-4.52-23.572-0.442c-0.814-0.329-1.773-0.243-2.526,0.327
	l-3.548,2.687c-1.137,0.861-1.361,2.482-0.5,3.618c0.859,1.138,2.48,1.361,3.62,0.501l3.549-2.686
	c0.871-0.663,1.201-1.765,0.923-2.758c12.172-8.737,19.434-2.264,20.695,8.62c1.359,11.738-7.146,24.16-12.93,30.624
	c-5.785,6.465-14.973,18.035-14.973,18.035l-1.873-0.513l-4.251,5.442l-5.104-6.805c0,0,0,0-0.851,1.19
	c-31.302-28.58-31.474-46.105-27.9-53.932c4.773-10.063,15.307-5.261,20.123-2.35c-0.135,0.904,0.204,1.85,0.985,2.443l3.548,2.686
	c1.141,0.86,2.76,0.637,3.62-0.501c0.863-1.136,0.638-2.757-0.5-3.618l-3.548-2.687c-0.753-0.571-1.714-0.656-2.53-0.325
	c-20.613-14.436-28.195,2.813-26.463,19.269c1.814,17.239,28.072,41.735,28.072,41.735l-1.701,1.871l6.975,9.104v7.629h1.588
	c-0.909,19.28,13.042,14.743,27.673,11.342C168.387,156.384,175.191,114.871,173.148,94.796z"/>
<path fill="#FF0000" d="M98.292,84.816c4.636,0,8.394-3.758,8.394-8.394c0-4.636-3.758-8.394-8.394-8.394
	c-4.636,0-8.394,3.758-8.394,8.394C89.898,81.058,93.656,84.816,98.292,84.816z M121.223,101.557
	c-1.451-2.628-3.882-4.987-6.973-5.958c-1.79-0.564-3.835-0.776-5.675-0.435c-5.492,1.023-8.608,4.335-11.163,8.235
	c-2.076-3.43-4.762-6.257-8.923-7.653c-1.397-0.466-3.035-0.91-4.806-0.759c-0.814,0.067-1.609,0.228-2.277,0.396
	c-2.032,0.506-3.55,1.453-4.915,2.674c-1.742,1.552-3.211,3.551-3.756,6.356c-0.611,3.121,0.252,6.109,1.407,8.271
	c2.366,4.436,5.75,7.726,9.504,10.732c1.875,1.504,3.824,2.932,5.564,4.553c3.318,3.098,5.906,6.674,7.877,11.09
	c0.107,0.246,0.186,0.85,0.47,0.617c0.238,0.241,0.332-0.072,0.394-0.181c0.312-0.535,0.523-1.146,0.763-1.661
	c2.409-5.217,6.068-8.958,10.296-12.357c2.41-1.938,4.916-3.697,6.973-5.961c2.065-2.275,4.094-4.531,5.384-7.555
	c0.684-1.595,1.235-3.227,1.192-5.273C122.52,104.686,122.014,102.986,121.223,101.557z"/>
</svg>
